<?xml version="1.0" encoding="utf-8"?>
<!-- Generator: Adobe Illustrator 17.0.0, SVG Export Plug-In . SVG Version: 6.00 Build 0)  -->
<!DOCTYPE svg PUBLIC "-//W3C//DTD SVG 1.1//EN" "http://www.w3.org/Graphics/SVG/1.1/DTD/svg11.dtd">
<svg version="1.1" id="Layer_1" xmlns="http://www.w3.org/2000/svg" xmlns:xlink="http://www.w3.org/1999/xlink" x="0px" y="0px"
	 width="19.194px" height="21.763px" viewBox="0 0 19.194 21.763" enable-background="new 0 0 19.194 21.763" xml:space="preserve">
<g>
	<linearGradient id="SVGID_1_" gradientUnits="userSpaceOnUse" x1="1.6537" y1="14.1815" x2="14.9557" y2="14.1815">
		<stop  offset="0" style="stop-color:#666666"/>
		<stop  offset="0.5161" style="stop-color:#B3B3B3"/>
	</linearGradient>
	<polygon fill="none" stroke="url(#SVGID_1_)" stroke-width="2" stroke-miterlimit="10" points="3.804,17.959 13.956,17.959 
		13.956,12.903 13.956,10.404 2.654,10.404 2.654,16.591 	"/>
	<linearGradient id="SVGID_2_" gradientUnits="userSpaceOnUse" x1="8.5142" y1="6.5306" x2="17.0431" y2="6.5306">
		<stop  offset="0.5161" style="stop-color:#B3B3B3"/>
		<stop  offset="1" style="stop-color:#5E5E5E"/>
	</linearGradient>
	<circle fill="none" stroke="url(#SVGID_2_)" stroke-width="2" stroke-miterlimit="10" cx="12.779" cy="6.531" r="3.264"/>
	<linearGradient id="SVGID_3_" gradientUnits="userSpaceOnUse" x1="-9.523880e-006" y1="7.1054" x2="7.3793" y2="7.1054">
		<stop  offset="0" style="stop-color:#5E5E5E"/>
		<stop  offset="0.4839" style="stop-color:#B3B3B3"/>
	</linearGradient>
	<circle fill="none" stroke="url(#SVGID_3_)" stroke-width="2" stroke-miterlimit="10" cx="3.69" cy="7.105" r="2.69"/>
	
		<linearGradient id="SVGID_4_" gradientUnits="userSpaceOnUse" x1="-134.2448" y1="266.4583" x2="-130.1604" y2="266.4583" gradientTransform="matrix(0.8077 0.5896 -0.5896 0.8077 274.6848 -126.1707)">
		<stop  offset="0.5161" style="stop-color:#29ABE2"/>
		<stop  offset="1" style="stop-color:#0071BC"/>
	</linearGradient>
	<path fill="none" stroke="url(#SVGID_4_)" stroke-miterlimit="10" d="M3.424,18.568c-0.771,1.342-1.031,2.225-0.473,2.632
		c0.855,0.624,4.926-3.495,9.091-9.201s6.849-10.837,5.993-11.462c-0.421-0.308-1.992,1.355-2.593,2.324"/>
	<linearGradient id="SVGID_5_" gradientUnits="userSpaceOnUse" x1="12.8918" y1="14.4845" x2="19.1945" y2="14.4845">
		<stop  offset="0.5161" style="stop-color:#B3B3B3"/>
		<stop  offset="1" style="stop-color:#5E5E5E"/>
	</linearGradient>
	<polygon fill="none" stroke="url(#SVGID_5_)" stroke-width="2" stroke-miterlimit="10" points="18.194,12.367 18.194,17.185 
		13.892,15.758 13.892,12.367 18.194,11.594 	"/>
	
		<linearGradient id="SVGID_6_" gradientUnits="userSpaceOnUse" x1="-29.4965" y1="54.8049" x2="-26.9717" y2="54.8049" gradientTransform="matrix(0.9921 0.1257 -0.1257 0.9921 47.6774 -39.2275)">
		<stop  offset="0" style="stop-color:#0578C1"/>
		<stop  offset="1" style="stop-color:#0071BC"/>
	</linearGradient>
	
		<linearGradient id="SVGID_7_" gradientUnits="userSpaceOnUse" x1="-29.9965" y1="54.836" x2="-26.048" y2="54.836" gradientTransform="matrix(0.9921 0.1257 -0.1257 0.9921 47.6774 -39.2275)">
		<stop  offset="0" style="stop-color:#0578C1"/>
		<stop  offset="1" style="stop-color:#0071BC"/>
	</linearGradient>
	<polygon fill="url(#SVGID_6_)" stroke="url(#SVGID_7_)" stroke-miterlimit="10" points="11.322,13.049 11.731,9.822 14.044,11.652 
			"/>
</g>
</svg>
