<?xml version="1.0" encoding="utf-8"?>
<!-- Generator: Adobe Illustrator 17.0.0, SVG Export Plug-In . SVG Version: 6.00 Build 0)  -->
<!DOCTYPE svg PUBLIC "-//W3C//DTD SVG 1.1//EN" "http://www.w3.org/Graphics/SVG/1.1/DTD/svg11.dtd">
<svg version="1.1" id="Layer_1" xmlns="http://www.w3.org/2000/svg" xmlns:xlink="http://www.w3.org/1999/xlink" x="0px" y="0px"
	 width="17.417px" height="18.063px" viewBox="0 0 17.417 18.063" enable-background="new 0 0 17.417 18.063" xml:space="preserve">
<g>
	<line fill="none" stroke="#FFFFFF" stroke-width="1.5" stroke-miterlimit="10" x1="0" y1="0.75" x2="17.417" y2="0.75"/>
	<line fill="none" stroke="#B3B3B3" stroke-width="1.5" stroke-miterlimit="10" x1="3.25" y1="3.5" x2="17.417" y2="3.5"/>
	<line fill="none" stroke="#B3B3B3" stroke-width="1.5" stroke-miterlimit="10" x1="3.25" y1="6.167" x2="15.062" y2="6.167"/>
	<line fill="none" stroke="#22B573" stroke-width="1.5" stroke-miterlimit="10" x1="0" y1="6.167" x2="1.75" y2="6.167"/>
	<line fill="none" stroke="#D4145A" stroke-width="1.5" stroke-miterlimit="10" x1="0" y1="3.5" x2="1.75" y2="3.5"/>
	<line fill="none" stroke="#B3B3B3" stroke-width="1.5" stroke-miterlimit="10" x1="3.25" y1="11.813" x2="11.312" y2="11.813"/>
	<line fill="none" stroke="#B3B3B3" stroke-width="1.5" stroke-miterlimit="10" x1="3.25" y1="14.479" x2="11.312" y2="14.479"/>
	<line fill="none" stroke="#22B573" stroke-width="1.5" stroke-miterlimit="10" x1="0" y1="14.479" x2="1.75" y2="14.479"/>
	<line fill="none" stroke="#22B573" stroke-width="1.5" stroke-miterlimit="10" x1="0" y1="11.813" x2="1.75" y2="11.813"/>
	<line fill="none" stroke="#B3B3B3" stroke-width="1.5" stroke-miterlimit="10" x1="0" y1="17.313" x2="11.312" y2="17.313"/>
	<line fill="none" stroke="#29ABE2" stroke-width="1.5" stroke-miterlimit="10" x1="0" y1="8.875" x2="11.312" y2="8.875"/>
	<g display="none">
		<linearGradient id="SVGID_1_" gradientUnits="userSpaceOnUse" x1="0.6816" y1="8.3267" x2="13.4844" y2="8.3267">
			<stop  offset="0" style="stop-color:#FF0000"/>
			<stop  offset="0.5215" style="stop-color:#FF867F"/>
			<stop  offset="1" style="stop-color:#FF0000"/>
		</linearGradient>
		<polygon display="inline" fill="url(#SVGID_1_)" stroke="#000000" stroke-width="0.5" stroke-miterlimit="10" points="
			5.126,8.421 0.682,3.978 2.803,1.856 7.247,6.3 11.363,2.188 13.484,4.31 9.374,8.427 13.291,12.344 11.17,14.465 7.252,10.548 
			2.997,14.797 0.876,12.676 		"/>
	</g>
</g>
</svg>
